:SAMPLES-PER-SECOND 30
:FRAME-RANGE 1-4244
:FULLY-SPECIFIED
:DEGREES
1327
root  -3.40245 36.2223 -2.39468 -28.9021 88.6818 -24.4934
RightUpLeg  -14.4348 -3.59393 -6.27675
RightLeg  47.6182 -6.80022 -8.26091
RightFoot  -24.2627 1.42341 13.9685
RightToes  -3.31784e-009 0 -3.6325e-017
Spine  14.3405 -1.35088 11.8899
Spine1  -0.180772 -0.732207 3.28734
HEad  -0.234741 15.3172 -12.7145
LeftShoulder1  2.11819 -3.78671 -22.7675
LeftArm  -10.0615 -43.0248 -24.3337
LeftForeArm  2.08954 -18.1948 -8.05374
LeftHand  0.00510716 -0.476918 -0.0501625
RightShoulder  14.3862 29.8213 36.7743
RightArm  -0.378295 27.6798 20.6058
RightForeArm  -14.6125 42.9337 11.3124
RightHand  0.358733 -0.722677 9.0829
LeftUpLeg  -36.7179 22.3586 -2.27443
LeftLeg  54.1782 0.351876 1.00584
LeftFoot  -4.77761 0.348317 -5.57263
LeftToes  1.0277e-010 -6.71454e-011 3.04227e-011
1328
root  -2.01021 36.5052 -2.61161 -4.37805 88.2832 -0.432281
RightUpLeg  -11.3421 -3.69719 -7.57575
RightLeg  45.0689 -6.39329 -7.13708
RightFoot  -24.893 1.59104 14.7471
RightToes  -3.31784e-009 0 -3.6325e-017
Spine  14.3466 -0.79501 10.6329
Spine1  -0.0347107 -0.215177 2.12306
HEad  -0.717978 15.163 -12.2425
LeftShoulder1  2.12159 -4.07452 -21.6463
LeftArm  -22.3329 -45.519 -22.6099
LeftForeArm  4.80721 -14.0148 -10.4372
LeftHand  0.0702494 0.669291 -1.83893
RightShoulder  15.2987 32.8002 35.6517
RightArm  -2.47906 31.5187 21.7097
RightForeArm  -17.7898 39.7193 10.3226
RightHand  0.359903 -0.849336 9.38821
LeftUpLeg  -36.4676 22.5239 -2.08746
LeftLeg  38.737 1.16078 1.36996
LeftFoot  -3.14708 0.470851 -6.30667
LeftToes  1.0277e-010 -6.71454e-011 3.04227e-011
1329
root  -0.575488 36.6688 -2.89965 0.877426 87.058 4.46346
RightUpLeg  -8.60975 -3.57463 -8.82389
RightLeg  43.0643 -5.38809 -5.67228
RightFoot  -25.2591 1.74609 15.6308
RightToes  -3.31784e-009 0 -3.6325e-017
Spine  14.308 -0.145463 9.572
Spine1  0.404816 0.547263 0.833912
HEad  -0.990718 15.1692 -11.3971
LeftShoulder1  2.10864 -4.31699 -20.5453
LeftArm  -35.1812 -47.8159 -20.179
LeftForeArm  5.83839 -9.74665 -11.4225
LeftHand  0.103411 1.96942 -3.95518
RightShoulder  15.9997 35.647 34.272
RightArm  -6.55209 34.6752 21.5802
RightForeArm  -21.2562 36.3442 9.39488
RightHand  0.343648 -1.02574 9.36634
LeftUpLeg  -34.0545 21.8428 -0.435821
LeftLeg  23.041 -0.788294 -0.0381446
LeftFoot  -1.50435 0.717281 -8.22173
LeftToes  1.0277e-010 -6.71454e-011 3.04227e-011
1330
root  0.939964 36.6537 -3.2842 0.629547 85.5106 4.28879
RightUpLeg  -6.08086 -3.14283 -10.3785
RightLeg  42.4004 -3.63526 -3.8446
RightFoot  -25.5819 2.00323 17.3164
RightToes  -3.31784e-009 0 -3.6325e-017
Spine  14.1491 0.475552 8.50762
Spine1  1.34319 1.32882 -0.415572
HEad  -1.03735 15.1505 -10.0074
LeftShoulder1  2.08726 -4.60306 -19.2434
LeftArm  -44.5208 -49.7097 -18.0652
LeftForeArm  2.35794 -6.60951 -10.698
LeftHand  0.04997 3.79053 -5.45477
RightShoulder  16.2807 38.3045 32.2314
RightArm  -11.8347 37.0961 20.5624
RightForeArm  -23.474 32.4333 8.34808
RightHand  0.301532 -1.05586 8.3042
LeftUpLeg  -30.5601 16.0443 4.67893
LeftLeg  12.8231 0.920444 -0.88081
LeftFoot  -0.0262231 0.874984 -8.82001
LeftToes  1.0277e-010 -6.71454e-011 3.04227e-011
1331
root  2.53757 36.4135 -3.77703 0.184219 84.2668 4.0441
RightUpLeg  -4.10244 -2.78276 -12.4757
RightLeg  43.475 -1.16697 -1.48573
RightFoot  -25.9695 2.38733 19.8037
RightToes  -3.31784e-009 0 -3.6325e-017
Spine  14.5601 1.02794 6.62417
Spine1  1.12307 1.72991 -0.71149
HEad  -0.558152 15.0009 -8.521
LeftShoulder1  2.07082 -4.72861 -18.6057
LeftArm  -47.9344 -51.0162 -16.5244
LeftForeArm  -1.8838 -5.20794 -9.82216
LeftHand  -0.0251735 5.20865 -6.1977
RightShoulder  15.937 40.1411 29.7024
RightArm  -16.8889 38.8211 19.1409
RightForeArm  -21.7151 27.2569 6.92235
RightHand  0.280849 -0.682894 7.07193
LeftUpLeg  -29.9584 14.0889 6.68517
LeftLeg  12.3975 3.15152 -0.541812
LeftFoot  3.92284 1.33606 -10.1296
LeftToes  1.0277e-010 -6.71454e-011 3.04227e-011
